<?xml version="1.0" encoding="utf-8"?>
<!-- Generator: Adobe Illustrator 13.0.0, SVG Export Plug-In . SVG Version: 6.00 Build 14948)  -->
<!DOCTYPE svg PUBLIC "-//W3C//DTD SVG 1.1//EN" "http://www.w3.org/Graphics/SVG/1.1/DTD/svg11.dtd">
<svg version="1.1" id="svg2403" xmlns:svg="http://www.w3.org/2000/svg"
	 xmlns="http://www.w3.org/2000/svg" xmlns:xlink="http://www.w3.org/1999/xlink" x="0px" y="0px" width="175px" height="170px"
	 viewBox="0 0 175 170" enable-background="new 0 0 175 170" xml:space="preserve">
<g id="layer1" transform="translate(-241.83035,-280.77737)">
	<path id="text2413" d="M373.178,331.207c-4.037,27.995-6.055,47.526-6.055,58.594c0,23.047,5.924,34.57,17.773,34.57
		c8.333,0,17.057-4.883,26.172-14.648l3.711,2.539c-6.25,14.453-11.816,24.023-16.699,28.711s-10.254,7.031-16.113,7.031
		c-8.984,0-15.397-5.404-19.238-16.211c-3.842-10.807-5.762-23.177-5.762-37.109c0-13.672,1.822-31.966,5.469-54.883
		c-13.933,14.323-31.381,36.589-52.344,66.797c-13.021,18.75-21.81,30.339-26.367,34.766c-4.557,4.428-9.961,6.641-16.211,6.641
		c-9.505,0-14.258-4.688-14.258-14.063c0-4.947,1.888-9.537,5.664-13.77c3.776-4.231,12.695-11.165,26.758-20.801
		c4.037-26.432,6.055-45.703,6.055-57.813c0-22.917-5.99-34.375-17.969-34.375c-8.203,0-16.862,4.883-25.977,14.648l-3.906-2.539
		c10.287-23.828,21.224-35.742,32.813-35.742c8.854,0,15.234,5.371,19.141,16.113s5.859,23.145,5.859,37.207
		c0,13.802-1.758,32.031-5.273,54.688c15.495-15.625,32.487-37.174,50.977-64.648c12.239-18.099,21.061-29.85,26.465-35.254
		c5.403-5.403,11.23-8.105,17.48-8.105c4.297,0,7.715,1.367,10.254,4.102s3.809,6.055,3.809,9.961c0,5.208-1.953,9.961-5.859,14.258
		S386.85,322.613,373.178,331.207L373.178,331.207z"/>
</g>
</svg>
